<mxfile host="app.diagrams.net" modified="2023-01-09T13:36:38.098Z" agent="5.0 (Windows NT 10.0; Win64; x64) AppleWebKit/537.36 (KHTML, like Gecko) Chrome/108.0.0.0 Safari/537.36" etag="MPdG7Znmajoygb3Ai1Ha" version="16.2.6" type="github">
  <diagram id="_x21rnT_4Uq4VeA4nx7p" name="Page-1">
    <mxGraphModel dx="1782" dy="489" grid="1" gridSize="10" guides="1" tooltips="1" connect="1" arrows="1" fold="1" page="1" pageScale="1" pageWidth="850" pageHeight="1100" math="0" shadow="0">
      <root>
        <mxCell id="0" />
        <mxCell id="1" parent="0" />
        <mxCell id="HrR6kC6-FeHwqLo0BJkA-4" value="&lt;h1&gt;Room Startup&lt;/h1&gt;" style="text;html=1;strokeColor=none;fillColor=none;spacing=5;spacingTop=-20;whiteSpace=wrap;overflow=hidden;rounded=0;" parent="1" vertex="1">
          <mxGeometry x="45" y="50" width="190" height="40" as="geometry" />
        </mxCell>
        <mxCell id="HrR6kC6-FeHwqLo0BJkA-5" value="Client A" style="shape=umlLifeline;perimeter=lifelinePerimeter;whiteSpace=wrap;html=1;container=1;collapsible=0;recursiveResize=0;outlineConnect=0;" parent="1" vertex="1">
          <mxGeometry x="-240" y="110" width="90" height="560" as="geometry" />
        </mxCell>
        <mxCell id="HrR6kC6-FeHwqLo0BJkA-26" value="" style="html=1;points=[];perimeter=orthogonalPerimeter;" parent="HrR6kC6-FeHwqLo0BJkA-5" vertex="1">
          <mxGeometry x="40" y="70" width="10" height="250" as="geometry" />
        </mxCell>
        <mxCell id="keosilxGRa-HAj4ylHu3-5" value="" style="html=1;points=[];perimeter=orthogonalPerimeter;" vertex="1" parent="HrR6kC6-FeHwqLo0BJkA-5">
          <mxGeometry x="40" y="370" width="10" height="90" as="geometry" />
        </mxCell>
        <mxCell id="keosilxGRa-HAj4ylHu3-18" value="" style="html=1;points=[];perimeter=orthogonalPerimeter;" vertex="1" parent="HrR6kC6-FeHwqLo0BJkA-5">
          <mxGeometry x="40" y="480" width="10" height="30" as="geometry" />
        </mxCell>
        <mxCell id="keosilxGRa-HAj4ylHu3-20" value="Start Scene Sync (Async)" style="html=1;verticalAlign=bottom;endArrow=block;rounded=0;" edge="1" parent="HrR6kC6-FeHwqLo0BJkA-5" target="keosilxGRa-HAj4ylHu3-19">
          <mxGeometry width="80" relative="1" as="geometry">
            <mxPoint x="50" y="509" as="sourcePoint" />
            <mxPoint x="130" y="509" as="targetPoint" />
          </mxGeometry>
        </mxCell>
        <mxCell id="HrR6kC6-FeHwqLo0BJkA-6" value="Client B" style="shape=umlLifeline;perimeter=lifelinePerimeter;whiteSpace=wrap;html=1;container=1;collapsible=0;recursiveResize=0;outlineConnect=0;" parent="1" vertex="1">
          <mxGeometry x="360" y="120" width="100" height="550" as="geometry" />
        </mxCell>
        <mxCell id="HrR6kC6-FeHwqLo0BJkA-38" value="" style="html=1;points=[];perimeter=orthogonalPerimeter;" parent="HrR6kC6-FeHwqLo0BJkA-6" vertex="1">
          <mxGeometry x="45" y="330" width="10" height="200" as="geometry" />
        </mxCell>
        <mxCell id="HrR6kC6-FeHwqLo0BJkA-7" value="Photon PUN Service" style="shape=umlLifeline;perimeter=lifelinePerimeter;whiteSpace=wrap;html=1;container=1;collapsible=0;recursiveResize=0;outlineConnect=0;size=40;" parent="1" vertex="1">
          <mxGeometry x="240" y="120" width="100" height="550" as="geometry" />
        </mxCell>
        <mxCell id="HrR6kC6-FeHwqLo0BJkA-12" value="" style="html=1;points=[];perimeter=orthogonalPerimeter;" parent="HrR6kC6-FeHwqLo0BJkA-7" vertex="1">
          <mxGeometry x="45" y="100" width="10" height="30" as="geometry" />
        </mxCell>
        <mxCell id="HrR6kC6-FeHwqLo0BJkA-17" value="" style="html=1;points=[];perimeter=orthogonalPerimeter;" parent="HrR6kC6-FeHwqLo0BJkA-7" vertex="1">
          <mxGeometry x="45" y="340" width="10" height="20" as="geometry" />
        </mxCell>
        <mxCell id="keosilxGRa-HAj4ylHu3-13" value="" style="html=1;points=[];perimeter=orthogonalPerimeter;" vertex="1" parent="HrR6kC6-FeHwqLo0BJkA-7">
          <mxGeometry x="45" y="415" width="10" height="30" as="geometry" />
        </mxCell>
        <mxCell id="keosilxGRa-HAj4ylHu3-16" value="" style="html=1;points=[];perimeter=orthogonalPerimeter;" vertex="1" parent="HrR6kC6-FeHwqLo0BJkA-7">
          <mxGeometry x="45" y="460" width="10" height="20" as="geometry" />
        </mxCell>
        <mxCell id="HrR6kC6-FeHwqLo0BJkA-8" value="Client Controller" style="shape=umlLifeline;participant=umlControl;perimeter=lifelinePerimeter;whiteSpace=wrap;html=1;container=1;collapsible=0;recursiveResize=0;verticalAlign=top;spacingTop=36;outlineConnect=0;" parent="1" vertex="1">
          <mxGeometry x="-80" y="90" width="40" height="580" as="geometry" />
        </mxCell>
        <mxCell id="HrR6kC6-FeHwqLo0BJkA-29" value="" style="html=1;points=[];perimeter=orthogonalPerimeter;" parent="HrR6kC6-FeHwqLo0BJkA-8" vertex="1">
          <mxGeometry x="15" y="260" width="10" height="70" as="geometry" />
        </mxCell>
        <mxCell id="HrR6kC6-FeHwqLo0BJkA-9" value="Client Controller" style="shape=umlLifeline;participant=umlControl;perimeter=lifelinePerimeter;whiteSpace=wrap;html=1;container=1;collapsible=0;recursiveResize=0;verticalAlign=top;spacingTop=36;outlineConnect=0;" parent="1" vertex="1">
          <mxGeometry x="480" y="120" width="40" height="550" as="geometry" />
        </mxCell>
        <mxCell id="keosilxGRa-HAj4ylHu3-23" value="" style="html=1;points=[];perimeter=orthogonalPerimeter;" vertex="1" parent="HrR6kC6-FeHwqLo0BJkA-9">
          <mxGeometry x="15" y="330" width="10" height="200" as="geometry" />
        </mxCell>
        <mxCell id="HrR6kC6-FeHwqLo0BJkA-11" value="Room Controller" style="shape=umlLifeline;participant=umlControl;perimeter=lifelinePerimeter;whiteSpace=wrap;html=1;container=1;collapsible=0;recursiveResize=0;verticalAlign=top;spacingTop=36;outlineConnect=0;" parent="1" vertex="1">
          <mxGeometry x="-10" y="120" width="40" height="550" as="geometry" />
        </mxCell>
        <mxCell id="HrR6kC6-FeHwqLo0BJkA-20" value="" style="html=1;points=[];perimeter=orthogonalPerimeter;" parent="HrR6kC6-FeHwqLo0BJkA-11" vertex="1">
          <mxGeometry x="15" y="190" width="10" height="20" as="geometry" />
        </mxCell>
        <mxCell id="HrR6kC6-FeHwqLo0BJkA-32" value="" style="html=1;points=[];perimeter=orthogonalPerimeter;" parent="HrR6kC6-FeHwqLo0BJkA-11" vertex="1">
          <mxGeometry x="15" y="240" width="10" height="50" as="geometry" />
        </mxCell>
        <mxCell id="keosilxGRa-HAj4ylHu3-6" value="" style="html=1;points=[];perimeter=orthogonalPerimeter;" vertex="1" parent="HrR6kC6-FeHwqLo0BJkA-11">
          <mxGeometry x="15" y="380" width="10" height="60" as="geometry" />
        </mxCell>
        <mxCell id="keosilxGRa-HAj4ylHu3-19" value="" style="html=1;points=[];perimeter=orthogonalPerimeter;" vertex="1" parent="HrR6kC6-FeHwqLo0BJkA-11">
          <mxGeometry x="15" y="490" width="10" height="30" as="geometry" />
        </mxCell>
        <mxCell id="HrR6kC6-FeHwqLo0BJkA-13" value="dispatch CreateRoom()" style="html=1;verticalAlign=bottom;endArrow=block;entryX=0;entryY=0;rounded=0;" parent="1" source="HrR6kC6-FeHwqLo0BJkA-5" target="HrR6kC6-FeHwqLo0BJkA-12" edge="1">
          <mxGeometry relative="1" as="geometry">
            <mxPoint x="280" y="210" as="sourcePoint" />
          </mxGeometry>
        </mxCell>
        <mxCell id="HrR6kC6-FeHwqLo0BJkA-14" value="return roomId" style="html=1;verticalAlign=bottom;endArrow=open;dashed=1;endSize=8;exitX=0;exitY=0.95;rounded=0;" parent="1" source="HrR6kC6-FeHwqLo0BJkA-12" target="HrR6kC6-FeHwqLo0BJkA-5" edge="1">
          <mxGeometry relative="1" as="geometry">
            <mxPoint y="239" as="targetPoint" />
          </mxGeometry>
        </mxCell>
        <mxCell id="HrR6kC6-FeHwqLo0BJkA-15" value="Store Client ID as Room Owner" style="text;html=1;strokeColor=none;fillColor=none;align=center;verticalAlign=middle;whiteSpace=wrap;rounded=0;" parent="1" vertex="1">
          <mxGeometry x="300" y="210" width="95" height="40" as="geometry" />
        </mxCell>
        <mxCell id="HrR6kC6-FeHwqLo0BJkA-18" value="Request Join Room" style="html=1;verticalAlign=bottom;endArrow=block;entryX=0;entryY=0;rounded=0;" parent="1" source="HrR6kC6-FeHwqLo0BJkA-6" target="HrR6kC6-FeHwqLo0BJkA-17" edge="1">
          <mxGeometry relative="1" as="geometry">
            <mxPoint x="275" y="330" as="sourcePoint" />
          </mxGeometry>
        </mxCell>
        <mxCell id="HrR6kC6-FeHwqLo0BJkA-21" value="Create RoomController" style="html=1;verticalAlign=bottom;endArrow=block;entryX=0;entryY=0;rounded=0;" parent="1" source="HrR6kC6-FeHwqLo0BJkA-5" target="HrR6kC6-FeHwqLo0BJkA-20" edge="1">
          <mxGeometry relative="1" as="geometry">
            <mxPoint x="-50" y="360" as="sourcePoint" />
          </mxGeometry>
        </mxCell>
        <mxCell id="HrR6kC6-FeHwqLo0BJkA-22" value="return" style="html=1;verticalAlign=bottom;endArrow=open;dashed=1;endSize=8;exitX=0;exitY=0.95;rounded=0;" parent="1" source="HrR6kC6-FeHwqLo0BJkA-20" target="HrR6kC6-FeHwqLo0BJkA-5" edge="1">
          <mxGeometry relative="1" as="geometry">
            <mxPoint x="-50" y="436" as="targetPoint" />
          </mxGeometry>
        </mxCell>
        <mxCell id="HrR6kC6-FeHwqLo0BJkA-28" value="CreateRoom(Callbacks)" style="html=1;verticalAlign=bottom;endArrow=block;rounded=0;entryX=1;entryY=0.019;entryDx=0;entryDy=0;entryPerimeter=0;" parent="1" source="HrR6kC6-FeHwqLo0BJkA-8" target="HrR6kC6-FeHwqLo0BJkA-26" edge="1">
          <mxGeometry width="80" relative="1" as="geometry">
            <mxPoint x="-50" y="270" as="sourcePoint" />
            <mxPoint x="70" y="380" as="targetPoint" />
          </mxGeometry>
        </mxCell>
        <mxCell id="HrR6kC6-FeHwqLo0BJkA-30" value="callback OnSuccess()" style="html=1;verticalAlign=bottom;endArrow=block;entryX=1;entryY=0;rounded=0;" parent="1" source="HrR6kC6-FeHwqLo0BJkA-26" target="HrR6kC6-FeHwqLo0BJkA-29" edge="1">
          <mxGeometry relative="1" as="geometry">
            <mxPoint y="290" as="sourcePoint" />
          </mxGeometry>
        </mxCell>
        <mxCell id="HrR6kC6-FeHwqLo0BJkA-31" value="return" style="html=1;verticalAlign=bottom;endArrow=open;dashed=1;endSize=8;rounded=0;exitX=0;exitY=1.024;exitDx=0;exitDy=0;exitPerimeter=0;" parent="1" source="HrR6kC6-FeHwqLo0BJkA-29" target="HrR6kC6-FeHwqLo0BJkA-26" edge="1">
          <mxGeometry relative="1" as="geometry">
            <mxPoint x="-130" y="357" as="targetPoint" />
            <mxPoint x="-60" y="360" as="sourcePoint" />
          </mxGeometry>
        </mxCell>
        <mxCell id="HrR6kC6-FeHwqLo0BJkA-33" value="Player A Entity" style="shape=umlLifeline;participant=umlEntity;perimeter=lifelinePerimeter;whiteSpace=wrap;html=1;container=1;collapsible=0;recursiveResize=0;verticalAlign=top;spacingTop=36;outlineConnect=0;" parent="1" vertex="1">
          <mxGeometry x="50" y="120" width="40" height="550" as="geometry" />
        </mxCell>
        <mxCell id="HrR6kC6-FeHwqLo0BJkA-34" value="SpawnEntity(Player)" style="html=1;verticalAlign=bottom;endArrow=block;rounded=0;entryX=-0.167;entryY=0;entryDx=0;entryDy=0;entryPerimeter=0;exitX=1.083;exitY=0.131;exitDx=0;exitDy=0;exitPerimeter=0;" parent="1" source="HrR6kC6-FeHwqLo0BJkA-29" target="HrR6kC6-FeHwqLo0BJkA-32" edge="1">
          <mxGeometry width="80" relative="1" as="geometry">
            <mxPoint x="-50" y="310" as="sourcePoint" />
            <mxPoint x="50" y="400" as="targetPoint" />
          </mxGeometry>
        </mxCell>
        <mxCell id="HrR6kC6-FeHwqLo0BJkA-35" value="Create" style="html=1;verticalAlign=bottom;endArrow=block;rounded=0;" parent="1" source="HrR6kC6-FeHwqLo0BJkA-32" target="HrR6kC6-FeHwqLo0BJkA-33" edge="1">
          <mxGeometry width="80" relative="1" as="geometry">
            <mxPoint x="110" y="350" as="sourcePoint" />
            <mxPoint x="190" y="350" as="targetPoint" />
          </mxGeometry>
        </mxCell>
        <mxCell id="HrR6kC6-FeHwqLo0BJkA-36" value="Notify New Entity" style="html=1;verticalAlign=bottom;endArrow=block;rounded=0;exitX=1.333;exitY=0.733;exitDx=0;exitDy=0;exitPerimeter=0;" parent="1" source="HrR6kC6-FeHwqLo0BJkA-32" target="HrR6kC6-FeHwqLo0BJkA-7" edge="1">
          <mxGeometry width="80" relative="1" as="geometry">
            <mxPoint x="290" y="380" as="sourcePoint" />
            <mxPoint x="370" y="380" as="targetPoint" />
          </mxGeometry>
        </mxCell>
        <mxCell id="HrR6kC6-FeHwqLo0BJkA-37" value="return" style="html=1;verticalAlign=bottom;endArrow=open;dashed=1;endSize=8;rounded=0;exitX=0;exitY=0.933;exitDx=0;exitDy=0;exitPerimeter=0;entryX=1.25;entryY=0.786;entryDx=0;entryDy=0;entryPerimeter=0;" parent="1" source="HrR6kC6-FeHwqLo0BJkA-32" target="HrR6kC6-FeHwqLo0BJkA-29" edge="1">
          <mxGeometry relative="1" as="geometry">
            <mxPoint x="-180" y="380" as="targetPoint" />
            <mxPoint x="-55" y="381.68000000000006" as="sourcePoint" />
          </mxGeometry>
        </mxCell>
        <mxCell id="HrR6kC6-FeHwqLo0BJkA-39" value="JoinRoom()" style="html=1;verticalAlign=bottom;endArrow=block;entryX=0;entryY=0;rounded=0;" parent="1" source="HrR6kC6-FeHwqLo0BJkA-9" target="HrR6kC6-FeHwqLo0BJkA-38" edge="1">
          <mxGeometry relative="1" as="geometry">
            <mxPoint x="405" y="280" as="sourcePoint" />
          </mxGeometry>
        </mxCell>
        <mxCell id="keosilxGRa-HAj4ylHu3-4" value="Forward Player Join Request" style="html=1;verticalAlign=bottom;endArrow=block;rounded=0;exitX=0.3;exitY=1;exitDx=0;exitDy=0;exitPerimeter=0;" edge="1" parent="1" source="HrR6kC6-FeHwqLo0BJkA-17" target="HrR6kC6-FeHwqLo0BJkA-5">
          <mxGeometry width="80" relative="1" as="geometry">
            <mxPoint x="80" y="500" as="sourcePoint" />
            <mxPoint x="160" y="500" as="targetPoint" />
          </mxGeometry>
        </mxCell>
        <mxCell id="keosilxGRa-HAj4ylHu3-7" value="OnPlayerJoinRequest()" style="html=1;verticalAlign=bottom;endArrow=block;entryX=0;entryY=0;rounded=0;" edge="1" target="keosilxGRa-HAj4ylHu3-6" parent="1" source="HrR6kC6-FeHwqLo0BJkA-5">
          <mxGeometry relative="1" as="geometry">
            <mxPoint x="-5" y="460" as="sourcePoint" />
          </mxGeometry>
        </mxCell>
        <mxCell id="keosilxGRa-HAj4ylHu3-8" value="return success" style="html=1;verticalAlign=bottom;endArrow=open;dashed=1;endSize=8;exitX=0.5;exitY=1.025;rounded=0;exitDx=0;exitDy=0;exitPerimeter=0;" edge="1" source="keosilxGRa-HAj4ylHu3-6" parent="1" target="keosilxGRa-HAj4ylHu3-5">
          <mxGeometry relative="1" as="geometry">
            <mxPoint x="-195" y="519" as="targetPoint" />
          </mxGeometry>
        </mxCell>
        <mxCell id="keosilxGRa-HAj4ylHu3-9" value="Player B Entity" style="shape=umlLifeline;participant=umlEntity;perimeter=lifelinePerimeter;whiteSpace=wrap;html=1;container=1;collapsible=0;recursiveResize=0;verticalAlign=top;spacingTop=36;outlineConnect=0;" vertex="1" parent="1">
          <mxGeometry x="120" y="120" width="40" height="550" as="geometry" />
        </mxCell>
        <mxCell id="keosilxGRa-HAj4ylHu3-10" value="Create" style="html=1;verticalAlign=bottom;endArrow=block;rounded=0;exitX=1.3;exitY=0.25;exitDx=0;exitDy=0;exitPerimeter=0;" edge="1" parent="1" source="keosilxGRa-HAj4ylHu3-6" target="keosilxGRa-HAj4ylHu3-9">
          <mxGeometry width="80" relative="1" as="geometry">
            <mxPoint x="75" y="395" as="sourcePoint" />
            <mxPoint x="9.5" y="395" as="targetPoint" />
          </mxGeometry>
        </mxCell>
        <mxCell id="keosilxGRa-HAj4ylHu3-11" value="Notify New Player" style="html=1;verticalAlign=bottom;endArrow=block;rounded=0;exitX=1.3;exitY=0.725;exitDx=0;exitDy=0;exitPerimeter=0;" edge="1" parent="1" source="keosilxGRa-HAj4ylHu3-6" target="keosilxGRa-HAj4ylHu3-13">
          <mxGeometry width="80" relative="1" as="geometry">
            <mxPoint x="90" y="400" as="sourcePoint" />
            <mxPoint x="290" y="544" as="targetPoint" />
          </mxGeometry>
        </mxCell>
        <mxCell id="keosilxGRa-HAj4ylHu3-14" value="Notify New Player" style="html=1;verticalAlign=bottom;endArrow=block;rounded=0;exitX=1.1;exitY=0.667;exitDx=0;exitDy=0;exitPerimeter=0;" edge="1" parent="1" source="keosilxGRa-HAj4ylHu3-13" target="HrR6kC6-FeHwqLo0BJkA-38">
          <mxGeometry width="80" relative="1" as="geometry">
            <mxPoint x="330" y="440" as="sourcePoint" />
            <mxPoint x="410" y="440" as="targetPoint" />
          </mxGeometry>
        </mxCell>
        <mxCell id="keosilxGRa-HAj4ylHu3-15" value="Sync Scene" style="html=1;verticalAlign=bottom;endArrow=block;rounded=0;exitX=0;exitY=0.675;exitDx=0;exitDy=0;exitPerimeter=0;" edge="1" parent="1" source="HrR6kC6-FeHwqLo0BJkA-38" target="keosilxGRa-HAj4ylHu3-16">
          <mxGeometry width="80" relative="1" as="geometry">
            <mxPoint x="150" y="530" as="sourcePoint" />
            <mxPoint x="350" y="579" as="targetPoint" />
          </mxGeometry>
        </mxCell>
        <mxCell id="keosilxGRa-HAj4ylHu3-17" value="Request Scene Data" style="html=1;verticalAlign=bottom;endArrow=block;rounded=0;exitX=0.1;exitY=0.8;exitDx=0;exitDy=0;exitPerimeter=0;entryX=1.1;entryY=0.175;entryDx=0;entryDy=0;entryPerimeter=0;" edge="1" parent="1" source="keosilxGRa-HAj4ylHu3-16" target="keosilxGRa-HAj4ylHu3-18">
          <mxGeometry width="80" relative="1" as="geometry">
            <mxPoint x="150" y="530" as="sourcePoint" />
            <mxPoint x="-120" y="596" as="targetPoint" />
          </mxGeometry>
        </mxCell>
        <mxCell id="keosilxGRa-HAj4ylHu3-21" value="Send Scene Data" style="html=1;verticalAlign=bottom;endArrow=block;rounded=0;exitX=1.3;exitY=0.425;exitDx=0;exitDy=0;exitPerimeter=0;" edge="1" parent="1" source="keosilxGRa-HAj4ylHu3-19" target="HrR6kC6-FeHwqLo0BJkA-7">
          <mxGeometry width="80" relative="1" as="geometry">
            <mxPoint x="110" y="580" as="sourcePoint" />
            <mxPoint x="190" y="580" as="targetPoint" />
          </mxGeometry>
        </mxCell>
        <mxCell id="keosilxGRa-HAj4ylHu3-22" value="Forward data" style="html=1;verticalAlign=bottom;endArrow=block;rounded=0;entryX=0;entryY=0.905;entryDx=0;entryDy=0;entryPerimeter=0;" edge="1" parent="1" source="HrR6kC6-FeHwqLo0BJkA-7" target="HrR6kC6-FeHwqLo0BJkA-38">
          <mxGeometry width="80" relative="1" as="geometry">
            <mxPoint x="110" y="580" as="sourcePoint" />
            <mxPoint x="190" y="580" as="targetPoint" />
          </mxGeometry>
        </mxCell>
        <mxCell id="keosilxGRa-HAj4ylHu3-24" value="return success" style="html=1;verticalAlign=bottom;endArrow=open;dashed=1;endSize=8;rounded=0;entryX=-0.1;entryY=0.985;entryDx=0;entryDy=0;entryPerimeter=0;" edge="1" parent="1" source="HrR6kC6-FeHwqLo0BJkA-38" target="keosilxGRa-HAj4ylHu3-23">
          <mxGeometry relative="1" as="geometry">
            <mxPoint x="460" y="540" as="sourcePoint" />
            <mxPoint x="380" y="540" as="targetPoint" />
          </mxGeometry>
        </mxCell>
      </root>
    </mxGraphModel>
  </diagram>
</mxfile>
